<mxfile host="app.diagrams.net" modified="2023-05-21T12:00:40.246Z" agent="Mozilla/5.0 (Windows NT 10.0; Win64; x64) AppleWebKit/537.36 (KHTML, like Gecko) Chrome/111.0.0.0 Safari/537.36 Edg/111.0.1661.44" version="21.1.5" etag="AVfpk-9tCC4uRCSE2Tr_" type="github">
  <diagram name="第 1 页" id="ULntmJ6luGdge8_btmcy">
    <mxGraphModel>
      <root>
        <mxCell id="0" />
        <mxCell id="1" parent="0" />
      </root>
    </mxGraphModel>
  </diagram>
</mxfile>
